<?xml version="1.0" standalone="no"?>
<!DOCTYPE svg PUBLIC "-//W3C//DTD SVG 20010904//EN"
 "http://www.w3.org/TR/2001/REC-SVG-20010904/DTD/svg10.dtd">
<svg version="1.0" xmlns="http://www.w3.org/2000/svg"
 width="2160.000000pt" height="2160.000000pt" viewBox="0 0 2160.000000 2160.000000"
 preserveAspectRatio="xMidYMid meet">
<metadata>
Created by potrace 1.14, written by Peter Selinger 2001-2017
</metadata>
<g transform="translate(0.000000,2160.000000) scale(0.100000,-0.100000)"
fill="#000000" stroke="none">
<path d="M0 10800 l0 -10800 10800 0 10800 0 0 10800 0 10800 -10800 0 -10800
0 0 -10800z m10928 9873 l42 -16 214 -431 c210 -422 253 -511 596 -1236 678
-1433 884 -1877 1032 -2225 414 -972 628 -1673 705 -2315 24 -207 25 -702 0
-930 -71 -651 -250 -1310 -572 -2100 -37 -91 -69 -172 -73 -180 -3 -8 25 23
63 70 343 428 715 777 1094 1028 469 311 980 503 1546 583 182 26 561 36 745
20 440 -38 846 -144 1175 -305 655 -322 1216 -963 1523 -1739 158 -399 234
-786 236 -1202 1 -244 -10 -333 -69 -581 -223 -933 -829 -1715 -1676 -2163
-212 -112 -478 -222 -680 -281 l-76 -22 -64 32 c-35 17 -84 50 -109 73 -45 42
-100 132 -100 164 0 9 25 66 55 127 98 199 145 378 165 631 21 266 -19 575
-106 817 -60 165 -140 286 -294 438 -207 206 -444 330 -759 397 -118 26 -142
27 -386 27 -224 0 -278 -3 -389 -22 -177 -31 -349 -73 -494 -121 -702 -235
-1227 -610 -1564 -1116 -87 -132 -181 -314 -228 -443 -28 -79 -29 -82 -9 -82
45 0 74 -28 121 -117 97 -183 141 -362 141 -573 0 -161 -18 -258 -73 -397 -59
-146 -179 -321 -244 -355 l-33 -17 13 -78 c44 -253 145 -489 265 -617 123
-132 254 -202 436 -233 119 -20 218 -9 345 37 157 58 339 208 422 350 84 142
119 341 99 547 -5 59 -8 113 -6 118 6 15 102 74 132 81 43 10 105 20 116 19
39 -4 122 -18 130 -23 6 -4 16 -7 23 -8 21 -4 50 -33 112 -114 172 -225 291
-483 335 -725 52 -281 15 -672 -92 -978 -127 -365 -391 -664 -727 -823 -167
-78 -275 -106 -501 -129 -485 -50 -920 35 -1252 243 -46 29 -83 49 -83 46 0
-4 20 -50 44 -103 24 -53 69 -154 101 -224 74 -162 179 -355 260 -477 65 -98
206 -267 231 -277 22 -8 17 -39 -18 -101 -54 -97 -116 -172 -176 -212 l-47
-32 -145 7 c-310 14 -542 70 -710 174 -28 17 -52 31 -54 31 -2 0 -7 -28 -11
-62 -16 -156 -70 -401 -118 -543 -46 -137 -123 -305 -297 -650 -213 -423 -237
-465 -259 -465 -10 0 -21 -3 -25 -7 -3 -4 -14 -8 -24 -10 -63 -12 -83 -14
-137 -13 -33 0 -86 5 -118 11 -46 10 -63 18 -81 43 -43 57 -349 629 -427 796
-165 355 -209 512 -245 857 l-6 62 -91 -48 c-143 -75 -262 -115 -442 -147 -96
-17 -317 -30 -366 -20 -52 9 -185 140 -243 239 l-46 78 97 102 c158 164 311
376 458 631 65 113 158 296 150 296 -2 0 -30 -17 -62 -37 -269 -172 -682 -269
-1063 -248 -318 17 -521 63 -700 158 -370 196 -646 532 -754 917 -108 389
-106 781 6 1099 62 177 186 391 312 542 50 60 60 67 118 83 84 23 257 14 266
-14 2 -5 10 -10 18 -10 8 0 14 -4 14 -10 0 -5 6 -10 13 -10 6 -1 22 -9 35 -20
22 -18 22 -22 14 -127 -21 -274 27 -479 145 -629 93 -116 194 -197 326 -260
200 -95 449 -82 655 33 126 69 254 215 321 365 41 89 88 237 111 348 26 126
26 148 -3 159 -29 11 -115 105 -166 180 -207 304 -236 681 -81 1035 61 138
126 242 161 258 16 7 29 16 29 20 0 21 -55 150 -109 255 -282 552 -804 993
-1496 1266 -896 352 -1692 286 -2187 -183 -158 -149 -252 -284 -311 -448 -84
-232 -117 -430 -117 -701 1 -309 51 -537 172 -773 47 -92 49 -100 38 -133 -6
-19 -15 -35 -20 -35 -5 0 -11 -8 -14 -17 -12 -38 -107 -126 -167 -155 -63 -31
-79 -29 -230 21 -699 234 -1306 673 -1703 1231 -120 168 -189 285 -280 470
-162 328 -256 620 -312 970 -23 141 -23 484 0 665 46 363 140 692 296 1035
242 534 639 1024 1090 1346 400 286 925 466 1499 515 201 17 615 7 791 -20
593 -89 1093 -284 1583 -618 456 -310 916 -785 1320 -1362 48 -68 87 -120 87
-117 0 19 -110 268 -327 741 -370 803 -520 1308 -584 1960 -17 168 -17 629 -1
815 87 976 383 1900 1089 3400 184 390 195 414 295 625 53 110 105 220 116
245 11 25 46 99 77 165 328 693 536 1159 696 1554 133 329 139 341 169 353 14
5 55 18 92 27 76 20 179 13 256 -16z m-6789 -1468 c70 -39 113 -90 167 -200
73 -152 105 -339 85 -510 -15 -126 -35 -196 -86 -302 -48 -101 -107 -173 -170
-206 l-40 -22 -1046 -3 -1046 -2 -6 -143 c-9 -186 -9 -13848 0 -14034 l6 -143
1046 -2 1046 -3 46 -27 c173 -102 284 -415 250 -705 -16 -135 -35 -203 -86
-308 -53 -109 -96 -161 -166 -200 l-54 -30 -1365 0 -1365 0 -66 23 c-164 56
-273 171 -327 343 -16 50 -17 587 -20 8014 -2 5292 1 7986 7 8037 13 99 42
180 89 247 62 91 197 178 309 200 28 5 602 8 1393 7 l1345 -1 54 -30z m16175
7 c173 -65 284 -189 327 -362 21 -84 21 -16019 0 -16100 -35 -136 -95 -225
-203 -297 -144 -96 -5 -88 -1558 -88 l-1365 0 -54 30 c-70 39 -113 90 -167
200 -94 195 -116 444 -59 670 35 140 141 301 229 348 l41 22 1046 3 1046 2 6
137 c9 178 9 13868 0 14046 l-6 137 -1027 0 c-1154 0 -1079 -5 -1169 76 -55
50 -126 176 -159 286 -33 108 -47 258 -33 374 7 55 19 126 27 159 19 76 93
228 134 278 35 41 105 86 153 98 18 4 640 6 1382 6 l1350 -2 59 -23z"/>
</g>
</svg>
